<svg xmlns="http://www.w3.org/2000/svg" width="512" height="512" viewBox="60 60 260 260">
  <defs>
    <linearGradient id="icon_0i64p2rv_grad" x1="60" y1="60" x2="320" y2="320" gradientUnits="userSpaceOnUse">
      <stop offset="0%" stop-color="#00d2ff" />
      <stop offset="100%" stop-color="#3a7bd5" />
    </linearGradient>
  </defs>
  <rect x="60" y="60" width="260" height="260" rx="20" ry="20" fill="url(#icon_0i64p2rv_grad)" />
  <g transform="translate(110.3125 105) scale(10.625)">
    <g color="#fff" fill="currentColor" stroke="none">
      <path fill-rule="evenodd" d="M14 4.5V14a2 2 0 0 1-2 2v-1a1 1 0 0 0 1-1V4.5h-2A1.5 1.5 0 0 1 9.5 3V1H4a1 1 0 0 0-1 1v9H2V2a2 2 0 0 1 2-2h5.5zM2.133 15.849v-1.535l1.339-2.464h-.856l-.855 1.696h-.032L.876 11.85H0l1.339 2.479v1.52zm2.287 0v-2.66h.038l.952 2.159h.516l.946-2.16h.038v2.661h.715V11.85h-.8l-1.14 2.596H5.66L4.52 11.85h-.805v3.999zm4.71-.674h1.696v.674H8.338V11.85h.791v3.325Z"/>
    </g>
  </g>
</svg>
